<?xml version="1.0" standalone="no"?>
<!DOCTYPE svg PUBLIC "-//W3C//DTD SVG 20010904//EN"
 "http://www.w3.org/TR/2001/REC-SVG-20010904/DTD/svg10.dtd">
<svg version="1.0" xmlns="http://www.w3.org/2000/svg"
 width="2400.000000pt" height="2400.000000pt" viewBox="0 0 2400.000000 2400.000000"
 preserveAspectRatio="xMidYMid meet">
<metadata>
Created by potrace 1.11, written by Peter Selinger 2001-2013
</metadata>
<g transform="translate(0.000000,2400.000000) scale(0.100000,-0.100000)"
fill="#000000" stroke="none">
<path d="M10209 23996 c-2 -2 -40 -6 -85 -10 -45 -3 -87 -8 -95 -10 -8 -3 -36
-7 -64 -10 -54 -6 -101 -14 -125 -21 -8 -2 -28 -7 -45 -10 -16 -2 -41 -7 -55
-10 -14 -3 -36 -8 -50 -11 -14 -3 -41 -9 -60 -14 -19 -5 -38 -10 -42 -11 -4 0
-45 -11 -91 -24 -46 -12 -108 -26 -138 -31 -57 -8 -68 -10 -71 -14 -2 -1 -12
-3 -23 -5 -30 -5 -68 -14 -158 -36 -45 -11 -89 -22 -97 -23 -122 -29 -320 -94
-450 -149 -338 -140 -585 -348 -716 -602 -40 -79 -84 -194 -87 -227 -1 -12
-27 -26 -92 -48 -521 -179 -830 -392 -945 -653 -17 -37 -27 -46 -77 -67 -32
-13 -94 -41 -138 -64 -44 -22 -83 -39 -87 -38 -3 1 -12 -5 -18 -13 -7 -8 -19
-15 -26 -15 -8 0 -14 -4 -14 -10 0 -5 -5 -10 -11 -10 -11 0 -172 -108 -220
-147 -273 -223 -477 -482 -639 -808 -94 -191 -178 -412 -235 -620 -16 -58 -20
-63 -98 -122 -134 -100 -256 -215 -355 -333 -34 -41 -68 -82 -76 -90 -19 -23
-118 -189 -143 -240 -56 -117 -110 -277 -119 -347 -1 -12 -5 -34 -8 -50 -13
-58 -17 -101 -23 -228 l-5 -130 -47 -55 c-25 -30 -54 -64 -64 -75 -10 -11 -28
-33 -40 -48 -12 -15 -30 -38 -40 -50 -77 -91 -205 -294 -269 -427 -76 -156
-147 -364 -153 -447 -2 -17 -5 -36 -9 -41 -26 -43 -27 -431 -1 -564 3 -16 7
-38 9 -50 7 -41 38 -163 44 -173 4 -5 8 -19 9 -30 2 -11 7 -29 12 -40 5 -11
21 -51 36 -90 16 -38 33 -76 38 -83 7 -9 4 -18 -14 -30 -83 -58 -302 -267
-389 -371 -188 -225 -340 -475 -445 -731 -26 -63 -51 -124 -56 -135 -37 -86
-122 -406 -144 -542 -3 -18 -7 -45 -9 -60 -17 -106 -19 -121 -32 -288 -14
-181 -9 -549 11 -710 19 -161 19 -160 -11 -192 -99 -103 -177 -219 -254 -376
-50 -104 -101 -231 -115 -287 -2 -8 -11 -37 -19 -65 -16 -52 -63 -263 -71
-322 -26 -185 -30 -242 -30 -488 0 -220 7 -377 20 -425 2 -8 6 -35 9 -60 16
-144 74 -370 138 -542 l40 -107 -86 -128 c-94 -141 -187 -319 -241 -458 -19
-49 -35 -93 -35 -97 -1 -4 -8 -27 -16 -50 -31 -88 -64 -239 -81 -375 -15 -120
-7 -505 12 -573 2 -8 6 -32 9 -52 15 -99 50 -235 101 -393 29 -90 99 -253 165
-387 81 -164 96 -191 192 -346 l70 -114 -6 -66 c-25 -253 -25 -709 -1 -863 2
-13 6 -50 10 -83 4 -32 8 -68 10 -80 2 -11 6 -38 9 -58 6 -37 39 -191 60 -275
25 -98 134 -399 155 -428 4 -5 14 -26 22 -45 24 -61 128 -243 171 -301 16 -20
28 -40 28 -43 0 -8 142 -193 185 -241 120 -133 242 -249 360 -343 44 -35 89
-71 100 -80 23 -19 231 -157 285 -189 78 -47 172 -97 308 -163 90 -44 142 -75
142 -85 0 -8 4 -23 9 -33 5 -9 37 -93 71 -187 125 -342 302 -734 424 -938 25
-43 46 -80 46 -82 0 -13 204 -315 281 -416 285 -374 619 -678 1019 -929 151
-95 376 -211 567 -295 76 -33 133 -64 137 -73 19 -60 219 -360 318 -478 125
-150 243 -270 368 -375 35 -29 70 -59 78 -66 7 -7 26 -20 42 -30 17 -9 30 -21
30 -25 0 -4 5 -8 11 -8 6 0 25 -11 41 -25 42 -35 227 -144 348 -205 140 -70
411 -175 505 -196 6 -1 54 -14 108 -29 101 -27 120 -31 172 -40 17 -3 50 -9
75 -15 25 -5 79 -14 120 -20 41 -7 85 -13 98 -15 13 -2 53 -7 90 -10 37 -4 78
-8 92 -11 118 -19 886 -27 1055 -11 536 51 959 356 1223 882 49 98 91 193 97
220 10 41 44 108 48 95 44 -125 61 -168 92 -240 58 -136 169 -331 232 -410
139 -174 222 -252 367 -349 92 -61 279 -144 356 -157 14 -3 36 -9 50 -14 127
-46 493 -49 740 -6 54 10 135 27 169 36 20 5 45 11 56 13 90 14 445 140 666
235 64 27 136 53 160 57 54 9 216 50 278 71 355 119 648 324 843 592 33 45 61
82 63 82 6 0 174 42 200 51 17 5 68 21 115 35 235 73 508 201 705 333 133 89
165 111 181 126 6 5 33 28 60 50 89 73 268 260 344 361 110 144 165 230 242
374 27 50 51 79 104 120 115 90 271 215 279 224 6 6 26 24 45 40 159 130 440
406 555 546 152 184 261 375 305 532 19 70 38 96 150 209 8 8 38 42 65 74 28
32 61 70 75 85 14 14 41 46 61 71 20 24 46 54 57 67 11 13 35 42 54 64 18 23
62 78 98 122 132 164 238 310 357 491 36 55 73 111 83 125 9 14 25 41 35 60
10 19 21 37 24 40 9 7 61 104 132 245 95 187 195 452 224 590 17 78 35 178 38
211 2 23 20 68 42 105 46 77 61 105 160 284 43 77 82 146 87 153 6 6 8 12 5
12 -3 0 10 28 30 62 48 85 288 574 304 621 7 20 17 37 21 37 4 0 8 7 8 15 0 8
4 23 10 33 12 23 70 152 70 158 0 2 9 23 19 47 70 153 260 682 276 764 2 13 6
26 9 31 4 6 24 78 51 182 22 84 50 203 66 285 23 113 23 113 39 215 7 41 14
83 16 93 2 10 6 46 9 80 3 34 8 69 10 77 19 71 27 625 12 815 -11 139 -15 184
-22 230 -3 22 -8 60 -10 85 -3 25 -8 54 -10 66 -3 12 -7 39 -10 60 -4 21 -13
75 -20 119 -8 44 -17 94 -20 110 -6 37 -9 54 -36 179 -11 56 -23 112 -25 125
-3 12 -12 52 -20 88 -15 64 -14 86 6 188 11 60 17 93 26 154 4 25 8 55 10 66
18 93 26 524 12 635 -39 305 -133 548 -278 713 l-25 29 -1 231 c-1 128 -4 256
-8 285 -3 28 -8 75 -11 102 -3 28 -10 74 -16 103 -6 28 -12 63 -15 77 -6 33
-25 111 -31 130 -4 8 -7 20 -8 25 -11 46 -28 102 -34 110 -4 6 -14 30 -21 55
-23 75 -135 289 -206 395 -37 55 -70 102 -73 105 -24 19 -49 64 -45 83 2 12 7
36 10 52 3 17 7 35 8 40 2 6 6 33 10 60 4 28 10 61 12 75 8 42 18 191 18 260
0 126 -19 270 -48 375 -2 6 -6 24 -10 40 -9 36 -13 45 -65 155 -35 74 -94 175
-111 190 -3 3 -17 21 -30 40 -45 64 -161 184 -266 275 -38 33 -71 62 -74 65
-3 3 -44 37 -92 74 -48 38 -85 73 -82 77 9 16 39 195 49 304 7 67 7 298 1 360
-16 154 -69 369 -115 470 -51 110 -71 150 -110 215 -25 41 -65 102 -90 135
-25 33 -53 69 -61 80 -27 36 -264 270 -297 293 -18 13 -30 28 -28 35 3 7 7 23
9 37 3 14 7 34 9 45 4 20 15 91 23 150 24 185 18 416 -16 575 -62 289 -191
503 -486 807 -250 258 -244 251 -259 293 -15 44 -108 257 -135 310 -16 30 -31
65 -35 78 -3 12 -11 22 -16 22 -5 0 -9 5 -9 11 0 6 -23 52 -52 103 -28 50 -59
105 -68 121 -30 52 -151 238 -199 303 -145 199 -250 321 -426 497 -296 297
-598 514 -960 690 -139 67 -322 143 -405 168 -19 6 -37 11 -40 12 -3 1 -12 4
-20 8 -8 3 -34 11 -57 17 -36 9 -62 27 -180 125 -24 20 -39 31 -78 60 -22 17
-42 33 -45 36 -3 3 -66 47 -140 97 -74 50 -140 96 -147 102 -7 5 -14 10 -17
10 -2 0 -40 21 -83 48 -43 26 -107 63 -143 81 -36 19 -80 43 -98 53 -28 15
-113 55 -287 134 -37 16 -205 78 -260 94 -22 7 -49 16 -60 21 -48 19 -262 71
-350 85 -16 3 -52 9 -80 14 -171 31 -603 35 -704 6 -9 -3 -33 -7 -53 -10 -21
-3 -59 -11 -85 -17 -27 -6 -52 -12 -58 -13 -5 -1 -14 -4 -20 -7 -5 -4 -23 -9
-40 -13 -53 -12 -218 -79 -295 -119 -182 -95 -389 -257 -510 -398 -30 -35 -60
-68 -66 -74 -5 -5 -23 -28 -39 -50 -16 -22 -32 -42 -35 -45 -9 -7 -110 -165
-145 -225 -58 -101 -170 -336 -181 -381 -4 -15 -13 -38 -20 -52 l-12 -24 -7
34 c-11 50 -88 273 -125 363 -185 445 -488 790 -857 974 -54 26 -109 52 -123
56 -14 4 -29 11 -35 15 -25 19 -282 85 -368 95 -25 3 -56 8 -68 11 -27 6 -454
15 -460 10z"/>
</g>
</svg>
